<svg width="158" height="38" viewBox="0 0 158 38" fill="none" xmlns="http://www.w3.org/2000/svg">
<g filter="url(#filter0_d_39_19)">
<rect x="4" width="150" height="30" rx="10" fill="black"/>
<path d="M43.6 18.448V11.248C43.6 11.048 43.648 10.892 43.744 10.78C43.848 10.66 43.98 10.6 44.14 10.6H46.144C47.416 10.6 48.38 10.92 49.036 11.56C49.7 12.2 50.032 13.208 50.032 14.584C50.032 17.528 48.776 19 46.264 19H44.212C43.804 19 43.6 18.816 43.6 18.448ZM45.904 12.88V16.468C45.904 16.636 45.916 16.744 45.94 16.792C45.964 16.832 46.036 16.852 46.156 16.852C46.596 16.852 46.928 16.688 47.152 16.36C47.384 16.032 47.5 15.488 47.5 14.728C47.5 13.96 47.38 13.46 47.14 13.228C46.908 12.996 46.536 12.88 46.024 12.88H45.904ZM55.4705 18.676C54.9665 18.972 54.3185 19.12 53.5265 19.12C52.7345 19.12 52.0665 18.852 51.5225 18.316C50.9785 17.772 50.7065 17.024 50.7065 16.072C50.7065 15.112 50.9665 14.34 51.4865 13.756C52.0145 13.172 52.6785 12.88 53.4785 12.88C54.2785 12.88 54.8945 13.084 55.3265 13.492C55.7665 13.9 55.9865 14.396 55.9865 14.98C55.9865 16.276 55.2425 16.924 53.7545 16.924H52.9265C52.9265 17.164 52.9905 17.332 53.1185 17.428C53.2545 17.516 53.4505 17.56 53.7065 17.56C54.2665 17.56 54.7985 17.432 55.3025 17.176C55.3105 17.168 55.3465 17.224 55.4105 17.344C55.6025 17.688 55.6985 17.98 55.6985 18.22C55.6985 18.452 55.6225 18.604 55.4705 18.676ZM53.9705 15.208C53.9705 14.872 53.8065 14.704 53.4785 14.704C53.3265 14.704 53.1945 14.752 53.0825 14.848C52.9785 14.936 52.9265 15.068 52.9265 15.244V15.616H53.5745C53.8385 15.616 53.9705 15.48 53.9705 15.208ZM59.3505 21.184C59.3505 21.24 59.0065 21.268 58.3185 21.268C57.6385 21.268 57.2985 21.24 57.2985 21.184V15.004H56.8905C56.6985 15.004 56.5665 14.828 56.4945 14.476C56.4705 14.364 56.4585 14.22 56.4585 14.044C56.4585 13.868 56.5145 13.66 56.6265 13.42C56.7865 13.068 57.0425 12.892 57.3945 12.892C57.6265 12.892 57.8385 12.948 58.0305 13.06C58.2305 13.164 58.3665 13.264 58.4385 13.36C58.5185 13.448 58.5585 13.5 58.5585 13.516C59.0945 13.1 59.6745 12.892 60.2985 12.892C60.9225 12.892 61.4585 13.136 61.9065 13.624C62.3545 14.104 62.5785 14.852 62.5785 15.868C62.5785 16.876 62.3545 17.66 61.9065 18.22C61.4585 18.772 60.8905 19.048 60.2025 19.048C59.8905 19.048 59.6065 19.032 59.3505 19V21.184ZM59.8425 14.992C59.7065 14.992 59.5745 15.036 59.4465 15.124V17.248C59.5825 17.264 59.6905 17.272 59.7705 17.272C59.8585 17.272 59.9265 17.272 59.9745 17.272C60.3025 17.24 60.4665 16.82 60.4665 16.012C60.4665 15.332 60.2585 14.992 59.8425 14.992ZM65.6107 18.904C65.6107 18.976 65.2027 19.012 64.3867 19.012C63.7467 19.004 63.4267 18.972 63.4267 18.916V10.744C63.4267 10.624 63.8147 10.564 64.5907 10.564C65.2707 10.588 65.6107 10.628 65.6107 10.684V18.904ZM67.2123 18.292C66.7163 17.74 66.4683 16.976 66.4683 16C66.4683 15.024 66.7163 14.26 67.2123 13.708C67.7163 13.156 68.3923 12.88 69.2402 12.88C70.0883 12.88 70.7603 13.156 71.2563 13.708C71.7523 14.26 72.0003 15.024 72.0003 16C72.0003 16.976 71.7523 17.74 71.2563 18.292C70.7603 18.844 70.0883 19.12 69.2402 19.12C68.3923 19.12 67.7163 18.844 67.2123 18.292ZM69.2402 14.884C68.7923 14.884 68.5683 15.252 68.5683 15.988C68.5683 16.724 68.7923 17.092 69.2402 17.092C69.6963 17.092 69.9243 16.724 69.9243 15.988C69.9243 15.252 69.6963 14.884 69.2402 14.884ZM72.4286 13.06C72.4286 12.972 72.7926 12.928 73.5206 12.928C74.2566 12.928 74.6366 12.968 74.6606 13.048L75.5246 15.88L76.3526 13.024C76.3846 12.96 76.6326 12.928 77.0966 12.928C78.1606 12.928 78.6686 12.98 78.6206 13.084L75.8006 21.112C75.7926 21.16 75.5726 21.184 75.1406 21.184C74.7166 21.184 74.3206 21.168 73.9526 21.136C73.5846 21.112 73.4086 21.08 73.4246 21.04L74.4686 18.52L72.4286 13.06ZM83.8299 18.676C83.3259 18.972 82.6779 19.12 81.8859 19.12C81.0939 19.12 80.4259 18.852 79.8819 18.316C79.3379 17.772 79.0659 17.024 79.0659 16.072C79.0659 15.112 79.3259 14.34 79.8459 13.756C80.3739 13.172 81.0379 12.88 81.8379 12.88C82.6379 12.88 83.2539 13.084 83.6859 13.492C84.1259 13.9 84.3459 14.396 84.3459 14.98C84.3459 16.276 83.6019 16.924 82.1139 16.924H81.2859C81.2859 17.164 81.3499 17.332 81.4779 17.428C81.6139 17.516 81.8099 17.56 82.0659 17.56C82.6259 17.56 83.1579 17.432 83.6619 17.176C83.6699 17.168 83.7059 17.224 83.7699 17.344C83.9619 17.688 84.0579 17.98 84.0579 18.22C84.0579 18.452 83.9819 18.604 83.8299 18.676ZM82.3299 15.208C82.3299 14.872 82.1659 14.704 81.8379 14.704C81.6859 14.704 81.5539 14.752 81.4419 14.848C81.3379 14.936 81.2859 15.068 81.2859 15.244V15.616H81.9339C82.1979 15.616 82.3299 15.48 82.3299 15.208ZM88.1658 10.672C88.1658 10.552 88.4818 10.492 89.1138 10.492C89.3298 10.492 89.5778 10.508 89.8578 10.54C90.1458 10.564 90.2898 10.6 90.2898 10.648V16.972H90.7098C90.9098 16.972 91.0418 17.152 91.1058 17.512C91.1218 17.616 91.1298 17.76 91.1298 17.944C91.1298 18.12 91.0738 18.336 90.9618 18.592C90.8018 18.944 90.5458 19.12 90.1938 19.12C89.9298 19.12 89.6938 19.068 89.4858 18.964C89.2858 18.86 89.1498 18.752 89.0778 18.64L88.9698 18.484C88.5298 18.908 87.9778 19.12 87.3138 19.12C86.6498 19.12 86.0818 18.844 85.6098 18.292C85.1378 17.74 84.9018 16.972 84.9018 15.988C84.9018 14.996 85.1498 14.232 85.6458 13.696C86.1418 13.152 86.7618 12.88 87.5058 12.88C87.7218 12.88 87.9418 12.904 88.1658 12.952V10.672ZM87.7698 14.8C87.3218 14.8 87.0978 15.204 87.0978 16.012C87.0978 16.42 87.1618 16.716 87.2898 16.9C87.4178 17.076 87.5578 17.164 87.7098 17.164C87.8698 17.164 88.0218 17.096 88.1658 16.96V14.92C88.0298 14.84 87.8978 14.8 87.7698 14.8ZM100.129 12.772C100.129 13.604 99.7687 14.236 99.0487 14.668C99.4407 14.812 99.7687 15.06 100.033 15.412C100.297 15.764 100.429 16.264 100.429 16.912C100.429 17.552 100.189 18.06 99.7087 18.436C99.2367 18.812 98.5567 19 97.6687 19H94.8367C94.7007 19 94.5887 18.956 94.5007 18.868C94.4127 18.772 94.3687 18.648 94.3687 18.496V10.816C94.3687 10.728 94.3807 10.672 94.4047 10.648C94.4367 10.616 94.4967 10.6 94.5847 10.6H97.3207C99.1927 10.6 100.129 11.324 100.129 12.772ZM96.6727 12.544V14.116H96.7327C97.5007 14.116 97.8847 13.86 97.8847 13.348C97.8847 13.068 97.8087 12.864 97.6567 12.736C97.5127 12.608 97.2687 12.544 96.9247 12.544H96.6727ZM96.6727 15.532V17.092H96.8887C97.2327 17.092 97.4847 17.028 97.6447 16.9C97.8047 16.772 97.8847 16.568 97.8847 16.288C97.8847 16.008 97.8087 15.812 97.6567 15.7C97.5127 15.588 97.2687 15.532 96.9247 15.532H96.6727ZM100.882 13.06C100.882 12.972 101.246 12.928 101.974 12.928C102.71 12.928 103.09 12.968 103.114 13.048L103.978 15.88L104.806 13.024C104.838 12.96 105.086 12.928 105.55 12.928C106.614 12.928 107.122 12.98 107.074 13.084L104.254 21.112C104.246 21.16 104.026 21.184 103.594 21.184C103.17 21.184 102.774 21.168 102.406 21.136C102.038 21.112 101.862 21.08 101.878 21.04L102.922 18.52L100.882 13.06ZM116.645 18.736C116.645 18.904 116.269 18.988 115.517 18.988C114.765 18.988 114.357 18.928 114.293 18.808L112.289 15.064V18.796C112.289 18.94 111.917 19.012 111.173 19.012C110.437 19.012 110.069 18.94 110.069 18.796V10.768C110.069 10.648 110.385 10.588 111.017 10.588C111.265 10.588 111.553 10.612 111.881 10.66C112.217 10.7 112.421 10.78 112.493 10.9L114.413 14.596V10.828C114.413 10.676 114.785 10.6 115.529 10.6C116.273 10.6 116.645 10.676 116.645 10.828V18.736ZM122.326 18.676C121.822 18.972 121.174 19.12 120.382 19.12C119.59 19.12 118.922 18.852 118.378 18.316C117.834 17.772 117.562 17.024 117.562 16.072C117.562 15.112 117.822 14.34 118.342 13.756C118.87 13.172 119.534 12.88 120.334 12.88C121.134 12.88 121.75 13.084 122.182 13.492C122.622 13.9 122.842 14.396 122.842 14.98C122.842 16.276 122.098 16.924 120.61 16.924H119.782C119.782 17.164 119.846 17.332 119.974 17.428C120.11 17.516 120.306 17.56 120.562 17.56C121.122 17.56 121.654 17.432 122.158 17.176C122.166 17.168 122.202 17.224 122.266 17.344C122.458 17.688 122.554 17.98 122.554 18.22C122.554 18.452 122.478 18.604 122.326 18.676ZM120.826 15.208C120.826 14.872 120.662 14.704 120.334 14.704C120.182 14.704 120.05 14.752 119.938 14.848C119.834 14.936 119.782 15.068 119.782 15.244V15.616H120.43C120.694 15.616 120.826 15.48 120.826 15.208ZM126.386 18.928C126.386 19.024 126.05 19.072 125.378 19.072C124.578 19.04 124.178 18.988 124.178 18.916V14.668H123.566C123.406 14.668 123.326 14.392 123.326 13.84C123.326 13.696 123.338 13.52 123.362 13.312C123.394 13.104 123.454 13 123.542 13H124.178V11.944C124.178 11.784 124.514 11.704 125.186 11.704C125.866 11.704 126.206 11.768 126.206 11.896V12.664L126.218 13H127.238C127.374 13 127.442 13.28 127.442 13.84C127.442 14.4 127.374 14.68 127.238 14.68H126.386V18.928ZM130.228 18.904C130.228 18.976 129.82 19.012 129.004 19.012C128.364 19.004 128.044 18.972 128.044 18.916V10.744C128.044 10.624 128.432 10.564 129.208 10.564C129.888 10.588 130.228 10.628 130.228 10.684V18.904ZM133.509 18.928C133.509 18.992 133.141 19.024 132.405 19.024C131.677 19.024 131.313 18.996 131.313 18.94V13.048C131.313 12.992 131.677 12.964 132.405 12.964C133.141 12.964 133.509 12.988 133.509 13.036V18.928ZM133.509 12.328C133.509 12.384 133.141 12.412 132.405 12.412C131.677 12.412 131.313 12.388 131.313 12.34V10.612C131.313 10.532 131.677 10.492 132.405 10.492C133.141 10.492 133.509 10.516 133.509 10.564V12.328ZM135.063 14.596H134.475C134.355 14.596 134.295 14.332 134.295 13.804C134.295 13.268 134.355 13 134.475 13H135.063V12.736C135.063 11.888 135.239 11.304 135.591 10.984C135.951 10.656 136.451 10.492 137.091 10.492C137.731 10.492 138.295 10.608 138.783 10.84C138.847 10.864 138.879 10.952 138.879 11.104C138.879 11.248 138.811 11.484 138.675 11.812C138.539 12.14 138.423 12.328 138.327 12.376C138.055 12.208 137.775 12.124 137.487 12.124C137.175 12.124 137.019 12.332 137.019 12.748V13H138.015C138.159 13 138.231 13.256 138.231 13.768C138.231 14.328 138.139 14.608 137.955 14.608H137.187V18.856C137.187 18.952 136.831 19 136.119 19C135.415 19 135.063 18.952 135.063 18.856V14.596ZM138.675 13.06C138.675 12.972 139.039 12.928 139.767 12.928C140.503 12.928 140.883 12.968 140.907 13.048L141.771 15.88L142.599 13.024C142.631 12.96 142.879 12.928 143.343 12.928C144.407 12.928 144.915 12.98 144.867 13.084L142.047 21.112C142.039 21.16 141.819 21.184 141.387 21.184C140.963 21.184 140.567 21.168 140.199 21.136C139.831 21.112 139.655 21.08 139.671 21.04L140.715 18.52L138.675 13.06Z" fill="white"/>
<path d="M19.49 21.54H19.26L18.13 20.4V20.17L19.86 18.46H21.06L21.21 18.61V19.81L19.5 21.54H19.49ZM18.13 8.81V8.6L19.26 7.47H19.49L21.2 9.18V10.38L21.05 10.53H19.85L18.13 8.81ZM28.09 17.9H26.44L26.3 17.77V13.94C26.3 13.26 26.03 12.74 25.2 12.71C24.78 12.71 24.3 12.71 23.77 12.73L23.7 12.81V17.77L23.56 17.91H21.9L21.77 17.77V11.23L21.9 11.09H25.6C25.9423 11.0887 26.2814 11.155 26.598 11.285C26.9146 11.4151 27.2025 11.6064 27.4449 11.848C27.6874 12.0895 27.8798 12.3766 28.0111 12.6927C28.1424 13.0088 28.21 13.3477 28.21 13.69V17.77L28.08 17.91L28.09 17.9ZM19.72 15.46H13.14L13 15.32V13.68L13.14 13.54H19.72L19.86 13.68V15.32L19.72 15.46ZM36.86 15.46H30.28L30.14 15.32V13.68L30.28 13.54H36.86L37 13.68V15.32L36.86 15.46ZM24.05 9.05V4.14L24.19 4H25.84L25.98 4.14V9.04L25.84 9.18H24.19L24.05 9.05ZM24.05 24.86V19.96L24.19 19.82H25.84L25.98 19.95V24.86L25.84 25H24.19L24.05 24.86Z" fill="white"/>
</g>
<defs>
<filter id="filter0_d_39_19" x="0" y="0" width="158" height="38" filterUnits="userSpaceOnUse" color-interpolation-filters="sRGB">
<feFlood flood-opacity="0" result="BackgroundImageFix"/>
<feColorMatrix in="SourceAlpha" type="matrix" values="0 0 0 0 0 0 0 0 0 0 0 0 0 0 0 0 0 0 127 0" result="hardAlpha"/>
<feOffset dy="4"/>
<feGaussianBlur stdDeviation="2"/>
<feComposite in2="hardAlpha" operator="out"/>
<feColorMatrix type="matrix" values="0 0 0 0 0 0 0 0 0 0 0 0 0 0 0 0 0 0 0.25 0"/>
<feBlend mode="normal" in2="BackgroundImageFix" result="effect1_dropShadow_39_19"/>
<feBlend mode="normal" in="SourceGraphic" in2="effect1_dropShadow_39_19" result="shape"/>
</filter>
</defs>
</svg>
