<svg width="58" height="58" viewBox="0 0 58 58" fill="none" xmlns="http://www.w3.org/2000/svg">
<g filter="url(#filter0_d_38_8)">
<rect x="4" width="50" height="50" rx="8" fill="white"/>
<rect x="5" y="1" width="48" height="48" rx="7" stroke="#999999" stroke-width="2"/>
</g>
<path d="M31.23 24.69C31.23 25.2829 30.9946 25.8514 30.5754 26.2707C30.1563 26.69 29.5879 26.9257 28.995 26.926C28.402 26.926 27.8332 26.6904 27.4139 26.2711C26.9946 25.8518 26.759 25.283 26.759 24.69C26.759 24.0971 26.9944 23.5286 27.4136 23.1093C27.8327 22.69 28.4011 22.4543 28.994 22.454C29.587 22.454 30.1558 22.6896 30.5751 23.1089C30.9944 23.5282 31.23 24.097 31.23 24.69ZM33.878 14C32.532 14 30.771 14.96 28.99 16.622C27.21 14.969 25.448 14.02 24.103 14.02C23.693 14.02 23.32 14.113 22.997 14.298C21.622 15.091 21.314 17.562 22.024 20.663C18.98 21.603 17 23.106 17 24.69C17 26.28 18.99 27.787 22.043 28.72C21.339 31.833 21.653 34.308 23.031 35.1C23.351 35.287 23.721 35.375 24.133 35.375C25.478 35.375 27.24 34.415 29.021 32.751C30.801 34.405 32.563 35.354 33.908 35.354C34.318 35.354 34.691 35.264 35.014 35.079C36.388 34.287 36.697 31.816 35.987 28.714C39.02 27.782 41 26.276 41 24.69C41 23.1 39.01 21.593 35.957 20.658C36.661 17.548 36.347 15.071 34.969 14.278C34.651 14.094 34.282 14.001 33.878 14ZM33.873 15.09V15.096C34.098 15.096 34.279 15.14 34.431 15.223C35.097 15.605 35.386 17.058 35.161 18.927C35.107 19.387 35.019 19.872 34.911 20.367C33.951 20.131 32.905 19.95 31.804 19.833C31.144 18.928 30.459 18.106 29.769 17.386C31.361 15.906 32.856 15.094 33.874 15.091L33.873 15.09ZM24.103 15.11C25.115 15.11 26.617 15.918 28.213 17.39C27.527 18.11 26.843 18.927 26.193 19.832C25.086 19.949 24.039 20.13 23.08 20.37C22.968 19.88 22.885 19.406 22.826 18.95C22.596 17.082 22.88 15.63 23.54 15.243C23.73 15.153 23.94 15.115 24.103 15.11ZM28.985 18.16C29.44 18.628 29.895 19.152 30.345 19.724C29.905 19.704 29.455 19.69 29 19.69C28.54 19.69 28.085 19.7 27.64 19.724C28.08 19.152 28.535 18.629 28.985 18.16ZM29 20.786C29.74 20.786 30.477 20.82 31.202 20.879C31.608 21.461 32.004 22.082 32.385 22.739C32.757 23.379 33.095 24.029 33.403 24.685C33.095 25.34 32.757 25.995 32.39 26.635C32.01 27.295 31.617 27.923 31.21 28.505C30.482 28.568 29.744 28.603 29 28.603C28.26 28.603 27.523 28.568 26.798 28.51C26.392 27.928 25.996 27.306 25.615 26.65C25.243 26.01 24.905 25.36 24.597 24.704C24.9 24.047 25.243 23.391 25.61 22.75C25.99 22.09 26.383 21.464 26.79 20.882C27.518 20.818 28.256 20.784 29 20.784V20.786ZM25.365 21.04C25.125 21.417 24.885 21.803 24.661 22.2C24.436 22.59 24.226 22.982 24.026 23.374C23.761 22.718 23.536 22.064 23.35 21.427C23.99 21.277 24.665 21.143 25.365 21.04ZM32.625 21.04C33.32 21.143 33.99 21.27 34.631 21.427C34.451 22.059 34.226 22.709 33.971 23.36C33.771 22.97 33.561 22.577 33.331 22.186C33.106 21.794 32.866 21.412 32.626 21.04H32.625ZM35.688 21.715C36.172 21.865 36.632 22.032 37.063 22.213C38.795 22.953 39.915 23.921 39.915 24.689C39.91 25.457 38.79 26.429 37.058 27.164C36.638 27.344 36.178 27.506 35.703 27.657C35.423 26.699 35.057 25.701 34.603 24.677C35.053 23.66 35.413 22.667 35.688 21.713V21.715ZM22.293 21.719C22.571 22.679 22.938 23.676 23.393 24.699C22.943 25.716 22.581 26.709 22.307 27.663C21.823 27.513 21.363 27.345 20.937 27.163C19.205 26.426 18.085 25.457 18.085 24.689C18.085 23.921 19.205 22.947 20.937 22.213C21.357 22.033 21.817 21.871 22.293 21.719ZM33.971 25.999C34.236 26.656 34.461 27.311 34.647 27.947C34.007 28.104 33.331 28.237 32.631 28.337C32.871 27.962 33.111 27.575 33.336 27.179C33.561 26.789 33.77 26.391 33.971 25.999ZM24.026 26.019C24.226 26.411 24.436 26.802 24.666 27.194C24.896 27.584 25.131 27.966 25.371 28.337C24.676 28.235 24.006 28.107 23.365 27.951C23.545 27.321 23.771 26.669 24.025 26.018L24.026 26.019ZM34.92 29.006C35.032 29.499 35.12 29.974 35.174 30.429C35.404 32.297 35.12 33.749 34.46 34.137C34.313 34.227 34.122 34.265 33.897 34.265C32.885 34.265 31.383 33.458 29.787 31.985C30.473 31.265 31.157 30.449 31.807 29.545C32.914 29.427 33.961 29.246 34.92 29.006ZM23.09 29.016C24.05 29.25 25.096 29.431 26.197 29.548C26.857 30.453 27.542 31.275 28.232 31.994C26.637 33.477 25.14 34.289 24.122 34.289C23.902 34.284 23.716 34.239 23.569 34.157C22.903 33.777 22.614 32.323 22.839 30.454C22.893 29.994 22.982 29.51 23.09 29.016ZM27.65 29.656C28.09 29.676 28.54 29.69 28.995 29.69C29.455 29.69 29.91 29.68 30.355 29.656C29.915 30.228 29.46 30.751 29.01 31.221C28.555 30.751 28.1 30.228 27.65 29.656Z" fill="#61DAFB"/>
<defs>
<filter id="filter0_d_38_8" x="0" y="0" width="58" height="58" filterUnits="userSpaceOnUse" color-interpolation-filters="sRGB">
<feFlood flood-opacity="0" result="BackgroundImageFix"/>
<feColorMatrix in="SourceAlpha" type="matrix" values="0 0 0 0 0 0 0 0 0 0 0 0 0 0 0 0 0 0 127 0" result="hardAlpha"/>
<feOffset dy="4"/>
<feGaussianBlur stdDeviation="2"/>
<feComposite in2="hardAlpha" operator="out"/>
<feColorMatrix type="matrix" values="0 0 0 0 0 0 0 0 0 0 0 0 0 0 0 0 0 0 0.25 0"/>
<feBlend mode="normal" in2="BackgroundImageFix" result="effect1_dropShadow_38_8"/>
<feBlend mode="normal" in="SourceGraphic" in2="effect1_dropShadow_38_8" result="shape"/>
</filter>
</defs>
</svg>
